<?xml version="1.0" encoding="utf-8"?><svg version="1.1" id="Layer_1" xmlns="http://www.w3.org/2000/svg" xmlns:xlink="http://www.w3.org/1999/xlink" x="0px" y="0px" viewBox="0 0 111.34 122.88" style="enable-background:new 0 0 111.34 122.88" xml:space="preserve"><style type="text/css"><![CDATA[
	.st0{fill:#275CA9;}
	.st1{fill-rule:evenodd;clip-rule:evenodd;fill:#FCDB33;}
	.st2{fill:#70CBFC;}
]]></style><g><path class="st1" d="M18.65,41.55c-1.39,0-2.54-1.15-2.54-2.53c0-1.39,1.15-2.54,2.54-2.54h6.49c1.39,0,2.54,1.15,2.54,2.53 c0,1.39-1.15,2.54-2.54,2.54H18.65L18.65,41.55L18.65,41.55L18.65,41.55z M22.61,22.79c-1.22-0.71-1.62-2.23-0.95-3.45 c0.71-1.22,2.23-1.62,3.45-0.95l5.65,3.25c1.22,0.71,1.62,2.23,0.95,3.45c-0.71,1.22-2.23,1.62-3.45,0.95L22.61,22.79L22.61,22.79 L22.61,22.79L22.61,22.79L22.61,22.79z M55.64,16.87c6.25,0,11.93,2.54,16.02,6.63c4.09,4.09,6.63,9.77,6.63,16.02 c0,1.88-0.23,3.71-0.66,5.46H33.65c-0.43-1.75-0.66-3.58-0.66-5.46c0-6.25,2.54-11.93,6.63-16.02 C43.77,19.41,49.42,16.87,55.64,16.87L55.64,16.87L55.64,16.87L55.64,16.87z M86.71,19.3c1.22-0.71,2.77-0.3,3.48,0.91 c0.68,1.22,0.27,2.77-0.95,3.45l-5.65,3.25c-1.22,0.71-2.77,0.3-3.45-0.91c-0.71-1.22-0.3-2.77,0.91-3.45L86.71,19.3L86.71,19.3 L86.71,19.3L86.71,19.3z M92.69,37.53c1.39,0,2.54,1.15,2.54,2.54s-1.15,2.54-2.54,2.54H86.2c-1.39,0-2.54-1.15-2.54-2.54 s1.15-2.54,2.54-2.54H92.69L92.69,37.53L92.69,37.53L92.69,37.53z M35.45,8.52c-0.71-1.22-0.3-2.77,0.88-3.45 c1.22-0.71,2.77-0.3,3.45,0.91l3.25,5.64c0.71,1.22,0.3,2.77-0.91,3.45c-1.22,0.71-2.77,0.3-3.45-0.91L35.45,8.52L35.45,8.52 L35.45,8.52L35.45,8.52z M53.67,2.54c0-1.39,1.12-2.54,2.54-2.54c1.39,0,2.54,1.15,2.54,2.54v6.49c0,1.39-1.15,2.53-2.54,2.53 c-1.39,0-2.54-1.15-2.54-2.53V2.54L53.67,2.54L53.67,2.54L53.67,2.54z M72.44,6.49c0.71-1.22,2.23-1.62,3.45-0.95 c1.22,0.71,1.63,2.23,0.95,3.45l-3.25,5.65c-0.71,1.22-2.23,1.62-3.45,0.95c-1.22-0.71-1.62-2.23-0.95-3.45L72.44,6.49L72.44,6.49 L72.44,6.49L72.44,6.49L72.44,6.49z"/><path class="st2" d="M108.04,96.7H59.77v17.97h14.87v8.21H36.69v-8.21h14.87V96.7H3.29c-0.28,0-0.58-0.04-0.89-0.13 c-0.59-0.16-1.15-0.48-1.56-0.91C0.33,95.12,0,94.43,0,93.64c0-0.23,0.04-0.47,0.11-0.73l0,0l12.44-45.17 c0.19-0.68,0.51-1.35,1.01-1.85c0.56-0.56,1.28-0.9,2.18-0.9h24.21h25.92h29.72c0.82,0,1.49,0.29,2.02,0.77 c0.05,0.05,0.11,0.09,0.16,0.14c0.5,0.5,0.82,1.17,1.01,1.85l12.45,45.18c0.07,0.26,0.11,0.5,0.11,0.72c0,0.79-0.33,1.48-0.85,2.01 c-0.41,0.43-0.98,0.75-1.56,0.91C108.62,96.66,108.32,96.7,108.04,96.7L108.04,96.7L108.04,96.7z"/><polygon class="st0" points="45.26,71 44.41,77.25 64.63,77.25 64,71 45.26,71 45.26,71"/><polygon class="st0" points="26.19,71 24.74,77.25 40.5,77.25 41.35,71 26.19,71 26.19,71"/><polygon class="st0" points="67.9,71 68.52,77.25 85.29,77.25 84.15,71 67.9,71 67.9,71"/><polygon class="st0" points="46.64,60.84 45.79,67.09 63.62,67.09 63,60.84 46.64,60.84 46.64,60.84"/><polygon class="st0" points="28.54,60.84 27.09,67.09 41.88,67.09 42.73,60.84 28.54,60.84 28.54,60.84"/><polygon class="st0" points="66.89,60.84 67.51,67.09 83.43,67.09 82.29,60.84 66.89,60.84 66.89,60.84"/><path class="st0" d="M48.27,48.87c0,0.07-0.01,0.14-0.02,0.21l-1.08,7.87h15.44l-0.8-8.08H48.27L48.27,48.87L48.27,48.87z"/><polygon class="st0" points="31.32,48.87 29.44,56.95 43.27,56.95 44.37,48.87 31.32,48.87 31.32,48.87"/><polygon class="st0" points="14.03,56.95 25.46,56.95 27.34,48.87 16.26,48.87 14.03,56.95 14.03,56.95"/><polygon class="st0" points="11.24,67.09 23.1,67.09 24.55,60.84 12.96,60.84 11.24,67.09 11.24,67.09"/><polygon class="st0" points="8.44,77.25 20.76,77.25 22.21,71 10.16,71 8.44,77.25 8.44,77.25"/><polygon class="st0" points="17.14,92.81 19.85,81.14 7.37,81.14 4.15,92.81 17.14,92.81 17.14,92.81"/><polygon class="st0" points="38.37,92.81 39.97,81.14 23.83,81.14 21.12,92.81 38.37,92.81 38.37,92.81"/><polygon class="st0" points="66.16,92.81 65,81.14 43.88,81.14 42.28,92.81 66.16,92.81 66.16,92.81"/><polygon class="st0" points="88.13,92.81 85.99,81.14 68.91,81.14 70.06,92.81 88.13,92.81 88.13,92.81"/><polygon class="st0" points="103.97,81.14 89.94,81.14 92.07,92.81 107.18,92.81 103.97,81.14 103.97,81.14"/><polygon class="st0" points="101.17,71 88.08,71 89.22,77.25 102.89,77.25 101.17,71 101.17,71"/><polygon class="st0" points="98.37,60.84 86.22,60.84 87.36,67.09 100.09,67.09 98.37,60.84 98.37,60.84"/><polygon class="st0" points="84.03,48.87 85.51,56.95 97.3,56.95 95.08,48.87 84.03,48.87 84.03,48.87"/><polygon class="st0" points="65.71,48.87 66.51,56.95 81.58,56.95 80.1,48.87 65.71,48.87 65.71,48.87"/></g></svg>